<svg xmlns="http://www.w3.org/2000/svg" xmlns:xlink="http://www.w3.org/1999/xlink" width="500" zoomAndPan="magnify" viewBox="0 0 375 374.999991" height="500" preserveAspectRatio="xMidYMid meet" version="1.0"><defs><g/><clipPath id="ec1d9d5d39"><path d="M 37.5 88.226562 L 337.5 88.226562 L 337.5 286.976562 L 37.5 286.976562 Z M 37.5 88.226562 " clip-rule="nonzero"/></clipPath></defs><g clip-path="url(#ec1d9d5d39)"><path fill="#f8f8f8" d="M 44.824219 286.976562 C 43.613281 286.976562 42.40625 286.734375 41.4375 286.25 C 39.019531 285.039062 37.566406 282.621094 37.566406 279.714844 L 37.566406 172.957031 C 37.566406 126.234375 75.535156 88.226562 122.207031 88.226562 L 250.375 88.226562 C 298.5 88.226562 337.433594 127.203125 337.433594 175.378906 C 337.433594 223.550781 298.5 262.527344 250.375 262.527344 L 82.546875 262.527344 L 48.933594 285.765625 C 47.726562 286.492188 46.273438 286.976562 44.824219 286.976562 Z M 122.207031 97.910156 C 80.855469 97.910156 47.242188 131.558594 47.242188 172.957031 L 47.242188 275.113281 L 79.644531 252.84375 L 250.375 252.84375 C 292.9375 252.84375 327.757812 217.984375 327.757812 175.378906 C 327.757812 132.769531 292.9375 97.910156 250.375 97.910156 Z M 122.207031 97.910156 " fill-opacity="1" fill-rule="nonzero"/></g><g fill="#f8f8f8" fill-opacity="1"><g transform="translate(105.890623, 200.793268)"><g><path d="M 16.21875 -52.609375 L 16.21875 0 L 6.171875 0 L 6.171875 -52.609375 Z M 16.21875 -52.609375 "/></g></g></g><g fill="#f8f8f8" fill-opacity="1"><g transform="translate(128.271374, 200.793268)"><g><path d="M 27.40625 -53.75 C 30.851562 -53.75 33.910156 -53.226562 36.578125 -52.1875 C 39.242188 -51.144531 41.769531 -49.609375 44.15625 -47.578125 L 38.75 -41.9375 C 36.875 -43.414062 35.109375 -44.484375 33.453125 -45.140625 C 31.804688 -45.796875 29.890625 -46.125 27.703125 -46.125 C 23.648438 -46.125 20.328125 -44.5 17.734375 -41.25 C 15.148438 -38.007812 13.859375 -33.039062 13.859375 -26.34375 C 13.859375 -19.332031 14.882812 -14.28125 16.9375 -11.1875 C 18.988281 -8.09375 22.125 -6.546875 26.34375 -6.546875 C 29.539062 -6.546875 32.332031 -7.234375 34.71875 -8.609375 L 34.71875 -22.296875 L 26.796875 -22.296875 L 25.734375 -29.765625 L 44.609375 -29.765625 L 44.609375 -4.03125 C 38.921875 -0.582031 32.878906 1.140625 26.484375 1.140625 C 18.972656 1.140625 13.222656 -1.191406 9.234375 -5.859375 C 5.253906 -10.523438 3.265625 -17.351562 3.265625 -26.34375 C 3.265625 -32.070312 4.34375 -37.003906 6.5 -41.140625 C 8.664062 -45.273438 11.570312 -48.410156 15.21875 -50.546875 C 18.875 -52.679688 22.9375 -53.75 27.40625 -53.75 Z M 27.40625 -53.75 "/></g></g></g><g fill="#f8f8f8" fill-opacity="1"><g transform="translate(176.839136, 200.793268)"><g><path d="M 27.40625 -53.75 C 30.851562 -53.75 33.910156 -53.226562 36.578125 -52.1875 C 39.242188 -51.144531 41.769531 -49.609375 44.15625 -47.578125 L 38.75 -41.9375 C 36.875 -43.414062 35.109375 -44.484375 33.453125 -45.140625 C 31.804688 -45.796875 29.890625 -46.125 27.703125 -46.125 C 23.648438 -46.125 20.328125 -44.5 17.734375 -41.25 C 15.148438 -38.007812 13.859375 -33.039062 13.859375 -26.34375 C 13.859375 -19.332031 14.882812 -14.28125 16.9375 -11.1875 C 18.988281 -8.09375 22.125 -6.546875 26.34375 -6.546875 C 29.539062 -6.546875 32.332031 -7.234375 34.71875 -8.609375 L 34.71875 -22.296875 L 26.796875 -22.296875 L 25.734375 -29.765625 L 44.609375 -29.765625 L 44.609375 -4.03125 C 38.921875 -0.582031 32.878906 1.140625 26.484375 1.140625 C 18.972656 1.140625 13.222656 -1.191406 9.234375 -5.859375 C 5.253906 -10.523438 3.265625 -17.351562 3.265625 -26.34375 C 3.265625 -32.070312 4.34375 -37.003906 6.5 -41.140625 C 8.664062 -45.273438 11.570312 -48.410156 15.21875 -50.546875 C 18.875 -52.679688 22.9375 -53.75 27.40625 -53.75 Z M 27.40625 -53.75 "/></g></g></g><g fill="#f8f8f8" fill-opacity="1"><g transform="translate(225.406898, 200.793268)"><g><path d="M 43.84375 -52.609375 L 26.953125 -19.9375 L 26.953125 0 L 16.75 0 L 16.75 -19.875 L -0.15625 -52.609375 L 10.96875 -52.609375 L 22.078125 -28.171875 L 33.1875 -52.609375 Z M 43.84375 -52.609375 "/></g></g></g></svg>